# xmcd
#
# Track frame offsets:
#	150
#	8334
#	19751
#	35302
#	41878
#	65833
#	78340
#	91979
#	107475
#	122659
#	131593
#	147768
#	159765
#	181327
#	199693
#	207713
#	219389
#
# Disc length: 3142
#
# Revision: 1
# Processed by: cddbd v1.5.1PL0 Copyright (c) Steve Scherf et al.
# Submitted via: Feurio! 1.65 - http://www.feurio.com
# Normalized: r0:DSWAP,DSETVAR1
#
DISCID=e10c4411
DTITLE=Various Artist - NIKCEVIC and BULATOVIC DUO
DYEAR=1900
DGENRE=misc
TTITLE0=Julian Arcas - BOLERO
TTITLE1=Klaus Doldinger - ERINNERUNG
TTITLE2=Ruichi Sakamoto - SHELTERING SKY
TTITLE3=Anonimo - EL VITO
TTITLE4=Antonin Dvorak - SLAVONIC DANCE No2 Op72
TTITLE5=John Barry - SOMEWHERE IN TIME
TTITLE6=Johannes Brahms - HUNGARIAN DANCE No 2
TTITLE7=Luiz Bonfa - MANHA DE CARNIVAL
TTITLE8=Hohn Williams - SCHINDLER'S LIST
TTITLE9=Johannes Brahms - HUNGARIAN DANCE No2
TTITLE10=Ennio Morricone - CHI MAI
TTITLE11=Tonino Baliardo - PHARAON
TTITLE12=Joaquin Rodrigo - ESPANOLETA
TTITLE13=Eduard Grieg - SOLVEJG'S LIED
TTITLE14=Georges Bizet - SEGUIDILLA
TTITLE15=Anonimo - ROMANCE
TTITLE16=Darko Nikcevic - SUZE
EXTD=
EXTT0=
EXTT1=
EXTT2=
EXTT3=
EXTT4=
EXTT5=
EXTT6=
EXTT7=
EXTT8=
EXTT9=
EXTT10=
EXTT11=
EXTT12=
EXTT13=
EXTT14=
EXTT15=
EXTT16=
PLAYORDER=
